HIERARCHY
ROOT Hips
{
  OFFSET 52.5633 56.0611 -16.276
  CHANNELS 6 Xposition Yposition Zposition Zrotation Xrotation Yrotation
  JOINT spine
  {
    OFFSET 0 7.96568 0.458067
    CHANNELS 3 Zrotation Xrotation Yrotation
    JOINT spine1
    {
      OFFSET 0 10.2431 0
      CHANNELS 3 Zrotation Xrotation Yrotation
      JOINT spine2
      {
        OFFSET 0 9.81475 0
        CHANNELS 3 Zrotation Xrotation Yrotation
        JOINT Neck
        {
          OFFSET 0 25.1986 1.20138
          CHANNELS 3 Zrotation Xrotation Yrotation
          JOINT Head
          {
            OFFSET 0 7.61315 0
            CHANNELS 3 Zrotation Xrotation Yrotation
            End Site
            {
              OFFSET 0 18.4281 -6.07733
            }
          }
        }
        JOINT RightShoulder
        {
          OFFSET -4.1327 10.5992 -0.575451
          CHANNELS 3 Zrotation Xrotation Yrotation
          JOINT RightArm
          {
            OFFSET 0 13.9018 0
            CHANNELS 3 Zrotation Xrotation Yrotation
            JOINT RightArmRoll
            {
              OFFSET 0 7.01788 0
              CHANNELS 3 Zrotation Xrotation Yrotation
              JOINT RightForeArm
              {
                OFFSET 0 20.4406 0
                CHANNELS 3 Zrotation Xrotation Yrotation
                JOINT RightForeArmRoll
                {
                  OFFSET 0 7.87516 0
                  CHANNELS 3 Zrotation Xrotation Yrotation
                  JOINT RightHand
                  {
                    OFFSET 0 15.8037 0
                    CHANNELS 3 Zrotation Xrotation Yrotation
                    End Site
                    {
                      OFFSET 0 0 0
                    }
                  }
                }
              }
            }
          }
        }
        JOINT LeftShoulder
        {
          OFFSET 4.1327 10.5992 -0.575451
          CHANNELS 3 Zrotation Xrotation Yrotation
          JOINT LeftArm
          {
            OFFSET 0 13.9018 0
            CHANNELS 3 Zrotation Xrotation Yrotation
            JOINT LeftArmRoll
            {
              OFFSET 0 7.01789 0
              CHANNELS 3 Zrotation Xrotation Yrotation
              JOINT LeftForeArm
              {
                OFFSET 0 20.4406 0
                CHANNELS 3 Zrotation Xrotation Yrotation
                JOINT LeftForeArmRoll
                {
                  OFFSET 0 7.87515 0
                  CHANNELS 3 Zrotation Xrotation Yrotation
                  JOINT LeftHand
                  {
                    OFFSET 0 15.8037 0
                    CHANNELS 3 Zrotation Xrotation Yrotation
                    End Site
                    {
                      OFFSET 0 0 0
                    }
                  }
                }
              }
            }
          }
        }
      }
    }
  }
  JOINT RightUpLeg
  {
    OFFSET -7.06048 -1.2947 -1.0861
    CHANNELS 3 Zrotation Xrotation Yrotation
    JOINT RightUpLegRoll
    {
      OFFSET 0 18.5308 0
      CHANNELS 3 Zrotation Xrotation Yrotation
      JOINT RightLeg
      {
        OFFSET 0 -22.9476 0
        CHANNELS 3 Zrotation Xrotation Yrotation
        JOINT RightLegRoll
        {
          OFFSET 0 23.0226 0
          CHANNELS 3 Zrotation Xrotation Yrotation
          JOINT RightFoot
          {
            OFFSET 0 19.1625 0
            CHANNELS 3 Zrotation Xrotation Yrotation
            JOINT RightToeBase
            {
              OFFSET 0 16.0188 0
              CHANNELS 3 Zrotation Xrotation Yrotation
              End Site
              {
                OFFSET 0.00678979 7.75782 -0.894206
              }
            }
          }
        }
      }
    }
  }
  JOINT LeftUpLeg
  {
    OFFSET 7.06048 -1.2947 -1.0861
    CHANNELS 3 Zrotation Xrotation Yrotation
    JOINT LeftUpLegRoll
    {
      OFFSET 0 18.5309 0
      CHANNELS 3 Zrotation Xrotation Yrotation
      JOINT LeftLeg
      {
        OFFSET 0 22.9475 0
        CHANNELS 3 Zrotation Xrotation Yrotation
        JOINT LeftLegRoll
        {
          OFFSET 0 23.2355 0
          CHANNELS 3 Zrotation Xrotation Yrotation
          JOINT LeftFoot
          {
            OFFSET 0 18.9496 0
            CHANNELS 3 Zrotation Xrotation Yrotation
            JOINT LeftToeBase
            {
              OFFSET 0 16.0188 0
              CHANNELS 3 Zrotation Xrotation Yrotation
              End Site
              {
                OFFSET -0.0304289 7.75782 -0.894206
              }
            }
          }
        }
      }
    }
  }
}
MOTION
Frames: 5
Frame Time: 0.00208333
53.8825 95.7911 30.0226 -0.893235 -1.07995 3.67633 0.282927 -2.12876 0.106396 0.577289 -0.254323 0.172639 0.575373 1.3907 0.163014 -1.36326 21.8479 -1.66095 3.12844 -4.56431 -1.68136 71.263 1.25758 -0.878751 106.752 19.0179 20.1602 5.97116e-006 2.78267e-006 2.99203e-006 2.32797 0.0224594 -0.209986 -5.7695e-006 2.04862e-006 -3.04317 8.02999 -4.95139 0.697642 -71.4267 0.800918 1.11394 -109.008 17.8385 -13.7105 -7.95139e-015 3.18055e-015 -0 -6.78229 0.0482766 0.357123 -3.00084e-005 -1.47112e-006 3.05699 -8.0293 -4.95143 -0.697662 177.807 -0.694855 -3.87764 180 7.01538e-015 178.884 178.632 4.87615 179.505 8.84859e-007 -1.88842e-007 0.0722472 -19.0981 68.3065 19.7973 8.13649 25.2327 -3.48774 -175.241 1.3215 1.09717 4.5067e-006 -1.99009e-005 -1.11169 -2.12797 -7.34774 0.101687 1.26356e-006 7.58204e-007 -0.132725 19.7244 69.0865 -20.4965 -8.13649 25.2327 3.48774 
53.8849 95.7912 30.0171 -0.89013 -1.06959 3.67892 0.282019 -2.12876 0.104806 0.57488 -0.254326 0.170542 0.572989 1.3907 0.160957 -1.36444 21.8485 -1.66289 3.13574 -4.58077 -1.68217 71.2697 1.25724 -0.879701 106.748 19.025 20.1523 5.97116e-006 2.78267e-006 2.99203e-006 2.3342 0.0224593 -0.209989 -5.7695e-006 2.04862e-006 -3.04317 8.02999 -4.95139 0.697642 -71.4191 0.799232 1.11378 -109.013 17.8383 -13.6986 3.97569e-015 -3.18055e-015 3.18055e-015 -6.79127 0.0482757 0.355153 -3.00084e-005 -1.47112e-006 3.05702 -8.0293 -4.95143 -0.697662 177.804 -0.669716 -3.87595 180 7.01538e-015 178.884 178.631 4.88611 179.504 8.84859e-007 -1.88842e-007 0.0722049 -19.0952 68.3033 19.7943 8.13649 25.2327 -3.48774 -175.249 1.34968 1.10491 4.5067e-006 -1.99009e-005 -1.11171 -2.12383 -7.36174 0.102156 1.26356e-006 7.58204e-007 -0.132819 19.7205 69.0823 -20.4923 -8.13649 25.2327 3.48774 
53.8927 95.79 30.0032 -0.88723 -1.05953 3.68144 0.281159 -2.12875 0.103192 0.572552 -0.254308 0.168428 0.570684 1.39071 0.158882 -1.36578 21.8496 -1.66475 3.14325 -4.59778 -1.68292 71.2765 1.25697 -0.880632 106.744 19.0319 20.1443 5.97116e-006 2.78267e-006 2.99203e-006 2.3407 0.0224592 -0.209997 -5.7695e-006 2.04862e-006 -3.04317 8.02999 -4.95139 0.697642 -71.4114 0.797439 1.11367 -109.018 17.838 -13.6866 -1.27222e-014 -3.18055e-015 -3.18055e-015 -6.80044 0.0482748 0.353245 -3.00084e-005 -1.47112e-006 3.05707 -8.0293 -4.95143 -0.697662 177.801 -0.645456 -3.87418 180 7.01538e-015 178.885 178.629 4.89508 179.504 8.84859e-007 -1.88842e-007 0.0721411 -19.0921 68.2996 19.7908 8.13649 25.2327 -3.48774 -175.257 1.37717 1.1123 4.5067e-006 -1.99009e-005 -1.11176 -2.11989 -7.37532 0.102598 1.26356e-006 7.58204e-007 -0.132921 19.7166 69.0782 -20.4881 -8.13649 25.2327 3.48774 
53.8747 95.7865 29.9938 -0.884475 -1.04968 3.68389 0.280334 -2.12873 0.101561 0.57028 -0.254276 0.166303 0.568437 1.39075 0.156793 -1.36724 21.8511 -1.66657 3.15092 -4.61518 -1.68363 71.2833 1.25674 -0.881552 106.739 19.0387 20.1361 5.97116e-006 2.78267e-006 2.99203e-006 2.34738 0.0224591 -0.210008 -5.7695e-006 2.04862e-006 -3.04317 8.02999 -4.95139 0.697642 -71.4036 0.795572 1.11358 -109.023 17.8375 -13.6745 7.95139e-016 -3.18055e-015 -3.18055e-015 -6.80975 0.0482738 0.351378 -3.00084e-005 -1.47112e-006 3.05713 -8.0293 -4.95143 -0.697662 177.798 -0.621813 -3.87236 180 7.01538e-015 178.885 178.627 4.90338 179.504 8.84859e-007 -1.88842e-007 0.0720621 -19.0887 68.2957 19.7872 8.13649 25.2327 -3.48774 -175.265 1.40417 1.11942 4.5067e-006 -1.99009e-005 -1.11182 -2.11607 -7.38859 0.103022 1.26356e-006 7.58204e-007 -0.133029 19.7127 69.074 -20.4839 -8.13649 25.2327 3.48774 
53.8775 95.8145 29.9847 -0.881804 -1.03996 3.68631 0.279529 -2.1287 0.09992 0.56804 -0.254235 0.164171 0.566221 1.39079 0.154698 -1.36877 21.8529 -1.66835 3.15868 -4.6328 -1.68431 71.2902 1.25654 -0.882464 106.735 19.0454 20.1279 5.97116e-006 2.78267e-006 2.99203e-006 2.35418 0.0224589 -0.21002 -5.7695e-006 2.04862e-006 -3.04317 8.02999 -4.95139 0.697642 -71.3957 0.79366 1.11351 -109.029 17.837 -13.6624 -7.95139e-015 -3.18055e-015 -3.18055e-015 -6.81915 0.0482729 0.349537 -3.00084e-005 -1.47112e-006 3.05721 -8.0293 -4.95143 -0.697662 177.795 -0.598528 -3.87051 180 7.01538e-015 178.885 178.625 4.91129 179.504 8.84859e-007 -1.88842e-007 0.0719744 -19.0851 68.2916 19.7833 8.13649 25.2327 -3.48774 -175.272 1.43089 1.12639 4.5067e-006 -1.99009e-005 -1.1119 -2.11234 -7.40168 0.103435 1.26356e-006 7.58204e-007 -0.133141 19.7088 69.0699 -20.4796 -8.13649 25.2327 3.48774 
